# xmcd
#
# Track frame offsets:
#	150
#	15750
#	30980
#	45860
#	57170
#	71538
#	85539
#	100536
#	115466
#	128398
#
# Disc length: 1912 seconds
#
# Revision: 0
# Processed by: cddbd v1.5.2PL0 Copyright (c) Steve Scherf et al.
# Submitted via: EasyCDDAExtractor 16.0.6.1
#
DISCID=5f07760a
DTITLE=Συλλογικός δίσκος - Πάρτε τα μπουζουκάκια σας-Β. Καραπατάκης
DYEAR=2009
DGENRE=Λαϊκή
TTITLE0=Μπίνης Τάκης-Μαρκοπούλου Ε. - Όταν κοιμάται ο δυστυχής [Βασ. Καραπατάκ
TTITLE0=ης-Χαρ. Βασιλειάδης]
TTITLE1=Καζαντζίδης Στέλιος - Η κοινωνία [Βασ. Καραπατάκης-Χρ. Κολοκοτρώνης]
TTITLE2=Καζαντζίδης Στέλιος - Στο πιο όμορφο χαρέμι [Βασ. Καραπατάκης-Χρ. Κολο
TTITLE2=κοτρώνης]
TTITLE3=Γκρέϋ Καίτη - Δεν ήταν η αγάπη μου για 'σένα [Βασ. Καραπατάκης]
TTITLE4=Καζαντζίδης ΣτέλιοςΠάνου Πόλυ - Είμαι φανταράκι [Βασ. Καραπατάκης]
TTITLE5=Καζαντζίδης Στέλιος - Ουΐσκι, τζιν και φρούμελ [Βασ. Καραπατάκης-Χρ. Κ
TTITLE5=ολοκοτρώνη]
TTITLE6=Κυριαζής Γιάννης-Λόρη Μάτα - Μην κοιτάζεις το ρολόϊ [Βασ. Καραπατάκης]
TTITLE7=Πάνου Πόλυ - Η παλιά αγάπη [Βασ. Καραπατάκης-Χρ. Κολοκοτρώνη]
TTITLE8=Πάνου Πόλυ - Θέλω γλέντι, θέλω τρέλλες [Βασ. Καραπατάκης-Χρ. Κολοκοτρώ
TTITLE8=νης]
TTITLE9=Καζαντζίδης Στέλιος-Μαρινέλλα - Τώρα που φεύγω απ' τη ζωή [Βασ. Καραπα
TTITLE9=τάκης-Ευτ. Παπαγιαννοπούλου]
EXTD=
EXTT0=
EXTT1=
EXTT2=
EXTT3=
EXTT4=
EXTT5=
EXTT6=
EXTT7=
EXTT8=
EXTT9=
PLAYORDER=
